<svg transform="scale(1)" version="1.1" id="Z0Bh4b5ahf" xmlns="http://www.w3.org/2000/svg" xmlns:xlink="http://www.w3.org/1999/xlink" x="0px" y="0px" viewBox="0 0 500 500" xml:space="preserve" class="pbimage_pbimage__wrapper__image__0LEis false"><title>Financial Statement</title><style type="text/css"> .st0{fill:#FFFFFF;} .st1{fill:#231F20;} .st2{fill:#2ECC71;} .st3{fill:#2ECC71;}
 .st3{fill:#2ECC71;}
 .st2{fill:#2ECC71;}
 .st1{fill:#231F20;}
 .st0{fill:#FFFFFF;}</style><g id="Monitor"><path class="st0" d="M105.9,140.8h299.2c3.9,0,7,3.1,7,7v186.6c0,3.9-3.1,7-7,7H105.9c-3.9,0-7-3.1-7-7V147.8
		C98.9,143.9,102,140.8,105.9,140.8z" fill="#FFFFFF"></path><path class="st1" d="M402.3,342H108.7c-5.8,0-10.5-4.7-10.5-10.5v-181c0-5.8,4.7-10.5,10.5-10.5h293.6c5.8,0,10.5,4.7,10.5,10.5
		v181C412.8,337.3,408.1,342,402.3,342z M108.7,141.5c-5,0-9.1,4.1-9.1,9.1v181c0,5,4.1,9.1,9.1,9.1h293.6c5,0,9.1-4.1,9.1-9.1v-181
		c0-5-4.1-9.1-9.1-9.1L108.7,141.5z" fill="#231F20"></path><path class="st1" d="M412.1,310.3H98.9c-0.4,0-0.7-0.3-0.7-0.7c0-0.4,0.3-0.7,0.7-0.7h313.2c0.4,0,0.7,0.3,0.7,0.7
		C412.8,310,412.5,310.3,412.1,310.3z" fill="#231F20"></path><polygon class="st0" points="295.5,380.1 215.5,380.1 230.2,341.4 280.8,341.4 	" fill="#FFFFFF"></polygon><path class="st1" d="M295.5,380.8h-80.1c-0.2,0-0.4-0.1-0.6-0.3c-0.1-0.2-0.2-0.4-0.1-0.6l14.8-38.8c0.1-0.3,0.4-0.5,0.6-0.5h50.5
		c0.3,0,0.5,0.2,0.6,0.5l14.8,38.8c0.1,0.2,0,0.5-0.1,0.6C295.9,380.7,295.7,380.8,295.5,380.8L295.5,380.8z M216.5,379.4h78
		l-14.2-37.4h-49.6L216.5,379.4L216.5,379.4z" fill="#231F20"></path><path class="st0" d="M204.7,377.9h101.5c1.9,0,3.4,1.5,3.4,3.4v3.8c0,1.9-1.5,3.4-3.4,3.4H204.7c-1.9,0-3.4-1.5-3.4-3.4v-3.8
		C201.4,379.3,202.9,377.9,204.7,377.9z" fill="#FFFFFF"></path><path class="st1" d="M304.9,389h-98.9c-3,0-5.4-2.4-5.4-5.4v-1.1c0-3,2.4-5.4,5.4-5.4h98.9c3,0,5.4,2.4,5.4,5.4v0v1.1
		C310.3,386.6,307.9,389,304.9,389L304.9,389z M206.1,378.5c-2.2,0-4,1.8-4,4v1.1c0,2.2,1.8,4,4,4h98.9c2.2,0,4-1.8,4-4v-1.1
		c0-2.2-1.8-4-4-4H206.1z" fill="#231F20"></path><polygon class="st1" points="222.9,359.1 282.5,347.5 280.2,341.4 229.7,341.4 	" fill="#231F20"></polygon><path class="st1" d="M222.9,359.8c-0.2,0-0.4-0.1-0.5-0.2c-0.2-0.2-0.2-0.5-0.1-0.7l6.7-17.7c0.1-0.3,0.4-0.5,0.6-0.5h50.5
		c0.3,0,0.5,0.2,0.6,0.5l2.3,6.1c0.1,0.4,0,0.8-0.4,0.9c0,0-0.1,0-0.1,0L222.9,359.8L222.9,359.8L222.9,359.8z M230.1,342.1
		l-6.1,16.1l57.6-11.1l-1.9-4.9L230.1,342.1z" fill="#231F20"></path></g><g id="Screen_and_Data"><rect class="st2" x="110.1" y="150.2" width="290.9" height="147.1"></rect><rect class="st3" x="110.1" y="150.2" width="290.9" height="147.1"></rect><path class="st0" d="M361.5,115.7v181.7h-212V103.7h200C356.2,103.7,361.5,109,361.5,115.7L361.5,115.7z"></path><path class="st1" d="M361.5,298h-212c-0.4,0-0.7-0.3-0.7-0.7l0,0V103.7c0-0.4,0.3-0.7,0.7-0.7h200c7,0,12.7,5.7,12.7,12.7
		c0,0,0,0,0,0v181.7C362.2,297.7,361.9,298.1,361.5,298L361.5,298L361.5,298z M150.3,296.6h210.6v-181c0-6.3-5.1-11.3-11.3-11.3
		c0,0,0,0,0,0H150.3V296.6L150.3,296.6z"></path><path class="st3" d="M252.4,166.8h-90.3c-0.4,0-0.7-0.3-0.7-0.7v-31.7c0-0.4,0.3-0.7,0.7-0.7c0.4,0,0.7,0.3,0.7,0.7v31h89.6
		c0.4,0,0.7,0.3,0.7,0.7C253.1,166.5,252.8,166.8,252.4,166.8L252.4,166.8z"></path><path class="st3" d="M234.8,243.1h-71.9c-0.4,0-0.7-0.3-0.7-0.7v-66c0-0.4,0.3-0.7,0.7-0.7h71.9c0.4,0,0.7,0.3,0.7,0.7v66
		C235.5,242.7,235.2,243.1,234.8,243.1z M163.6,241.7h70.5V177h-70.5L163.6,241.7z"></path><path class="st3" d="M347.3,287.4H167.1c-0.4,0-0.7-0.3-0.7-0.7l0,0v-32c0-0.4,0.3-0.7,0.7-0.7h180.2c0.4,0,0.7,0.3,0.7,0.7
		c0,0,0,0,0,0v32C348,287.1,347.7,287.4,347.3,287.4L347.3,287.4z M167.8,286h178.8v-30.5H167.8V286z"></path><path class="st3" d="M347.3,266.8H167.1c-0.4,0-0.7-0.3-0.7-0.7c0-0.4,0.3-0.7,0.7-0.7c0,0,0,0,0,0h180.2c0.4,0,0.7,0.3,0.7,0.7
		C348,266.4,347.7,266.8,347.3,266.8z"></path><path class="st2" d="M349.5,103.7c-6.6,0-12,5.4-12,12v12h-205v-12c0-6.6,5.4-12,12-12H349.5z"></path><path class="st1" d="M337.5,128.4h-205c-0.4,0-0.7-0.3-0.7-0.7v-12c0-7,5.7-12.7,12.8-12.7h205c0.4,0,0.7,0.3,0.7,0.7
		c0,0.4-0.3,0.7-0.7,0.7c-6.3,0-11.3,5.1-11.3,11.3v12C338.2,128.1,337.9,128.4,337.5,128.4z M133.2,127h203.6v-11.3
		c0-4.8,2.7-9.1,6.9-11.3H144.5c-6.3,0-11.3,5.1-11.3,11.3L133.2,127L133.2,127z"></path><rect class="st2" x="255" y="178.3" width="15.5" height="64.1"></rect><path class="st1" d="M270.6,243.1H255c-0.4,0-0.7-0.3-0.7-0.7v-64.1c0-0.4,0.3-0.7,0.7-0.7h15.5c0.4,0,0.7,0.3,0.7,0.7c0,0,0,0,0,0
		v64.1C271.2,242.7,270.9,243,270.6,243.1z M255.7,241.7h14.1V179h-14.1L255.7,241.7L255.7,241.7z"></path><rect class="st0" x="255" y="178.3" width="15.5" height="23.5"></rect><path class="st1" d="M270.6,202.5H255c-0.4,0-0.7-0.3-0.7-0.7v-23.5c0-0.4,0.3-0.7,0.7-0.7h15.5c0.4,0,0.7,0.3,0.7,0.7c0,0,0,0,0,0
		v23.5C271.2,202.2,270.9,202.5,270.6,202.5z M255.7,201.1h14.1V179h-14.1L255.7,201.1L255.7,201.1z"></path><rect class="st2" x="278.3" y="178.3" width="15.5" height="64.1"></rect><path class="st1" d="M293.8,243.1h-15.5c-0.4,0-0.7-0.3-0.7-0.7c0,0,0,0,0,0v-64.1c0-0.4,0.3-0.7,0.7-0.7l0,0h15.5
		c0.4,0,0.7,0.3,0.7,0.7c0,0,0,0,0,0v64.1C294.5,242.7,294.2,243.1,293.8,243.1L293.8,243.1z M279,241.6h14.1V179H279V241.6z"></path><rect class="st0" x="278.3" y="178.3" width="15.5" height="32"></rect><path class="st1" d="M293.8,211h-15.5c-0.4,0-0.7-0.3-0.7-0.7c0,0,0,0,0,0v-32c0-0.4,0.3-0.7,0.7-0.7l0,0h15.5
		c0.4,0,0.7,0.3,0.7,0.7c0,0,0,0,0,0v32C294.5,210.7,294.2,211,293.8,211L293.8,211z M279,209.6h14.1V179H279V209.6z"></path><rect class="st2" x="301.5" y="178.3" width="15.5" height="64.1"></rect><path class="st1" d="M317.1,243.1h-15.5c-0.4,0-0.7-0.3-0.7-0.7c0,0,0,0,0,0v-64.1c0-0.4,0.3-0.7,0.7-0.7l0,0h15.5
		c0.4,0,0.7,0.3,0.7,0.7c0,0,0,0,0,0v64.1C317.8,242.7,317.5,243.1,317.1,243.1L317.1,243.1z M302.2,241.7h14.1V179h-14.1V241.7z"></path><rect class="st0" x="301.5" y="178.3" width="15.5" height="11.8"></rect><path class="st1" d="M317.1,190.7h-15.5c-0.4,0-0.7-0.3-0.7-0.7c0,0,0,0,0,0v-11.8c0-0.4,0.3-0.7,0.7-0.7l0,0h15.5
		c0.4,0,0.7,0.3,0.7,0.7c0,0,0,0,0,0V190C317.8,190.4,317.5,190.7,317.1,190.7C317.1,190.7,317.1,190.7,317.1,190.7z M302.2,189.3
		h14.1V179h-14.1V189.3z"></path><rect class="st2" x="324.8" y="178.3" width="15.5" height="64.1"></rect><path class="st1" d="M340.3,243.1h-15.5c-0.4,0-0.7-0.3-0.7-0.7c0,0,0,0,0,0v-64.1c0-0.4,0.3-0.7,0.7-0.7l0,0h15.5
		c0.4,0,0.7,0.3,0.7,0.7c0,0,0,0,0,0v64.1C341,242.7,340.7,243.1,340.3,243.1L340.3,243.1z M325.5,241.7h14.1V179h-14.1V241.7z"></path><rect class="st0" x="324.8" y="178.3" width="15.5" height="24.5"></rect><path class="st1" d="M340.3,203.4h-15.5c-0.4,0-0.7-0.3-0.7-0.7c0,0,0,0,0,0v-24.5c0-0.4,0.3-0.7,0.7-0.7l0,0h15.5
		c0.4,0,0.7,0.3,0.7,0.7c0,0,0,0,0,0v24.5C341,203.1,340.7,203.4,340.3,203.4L340.3,203.4z M325.5,202.1h14.1V179h-14.1V202.1
		L325.5,202.1z"></path><path class="st3" d="M219,287.4c-0.4,0-0.7-0.3-0.7-0.7l0,0v-32c0-0.4,0.3-0.7,0.7-0.7c0.4,0,0.7,0.3,0.7,0.7v32
		C219.7,287.1,219.4,287.4,219,287.4C219,287.4,219,287.4,219,287.4z"></path><path class="st3" d="M303.2,287.4c-0.4,0-0.7-0.3-0.7-0.7v0v-32c0-0.4,0.3-0.7,0.7-0.7c0.4,0,0.7,0.3,0.7,0.7c0,0,0,0,0,0v32
		C303.9,287.1,303.6,287.4,303.2,287.4z"></path><path class="st1" d="M350.9,243.1H241.4c-0.4,0-0.7-0.3-0.7-0.7c0-0.4,0.3-0.7,0.7-0.7h109.5c0.4,0,0.7,0.3,0.7,0.7
		S351.3,243,350.9,243.1C350.9,243.1,350.9,243.1,350.9,243.1z"></path><path class="st3" d="M168,161.4c-0.1,0-0.2,0-0.4-0.1c-0.3-0.2-0.5-0.6-0.3-0.9c0,0,0,0,0-0.1c2.8-4.9,6.6-9.2,11.2-12.6
		c3.6-2.6,6.7-3.6,9.4-3c2.4,0.5,4.2,2.1,6,3.7c0.5,0.4,1,0.9,1.6,1.3c1.6,1.2,3.3,2.2,5.1,3c0.8,0.4,1.6,0.5,2.4,0.5
		c1-0.2,1.9-0.6,2.6-1.3c1.2-1,2.3-2.1,3.3-3.2c1.7-2,3.8-3.7,6.2-5c3.6-1.6,7.8-1.1,11,1.2c0.8,0.6,1.5,1.2,2.1,1.9
		c0.6,0.6,1.1,1.1,1.7,1.6c3.6,2.9,9.3,3.4,14.6,1.2c4.9-2.1,9-6,12.5-9.6c0.3-0.3,0.7-0.3,1,0c0.3,0.3,0.3,0.7,0,1c0,0,0,0,0,0
		c-3.5,3.7-7.7,7.7-12.9,9.9c-5.7,2.4-12,1.8-16-1.4c-0.6-0.5-1.3-1.1-1.9-1.7c-0.6-0.6-1.3-1.3-2-1.8c-2.8-2-6.4-2.4-9.5-1.1
		c-2.2,1-4,2.8-5.8,4.7c-1.1,1.2-2.2,2.3-3.5,3.3c-0.9,0.8-2.1,1.4-3.4,1.6c-1.1,0-2.1-0.2-3.1-0.6c-2-0.8-3.8-1.9-5.4-3.2
		c-0.6-0.4-1.1-0.9-1.6-1.4c-1.7-1.5-3.4-2.9-5.4-3.4c-2.4-0.5-5.1,0.4-8.3,2.7c-4.4,3.2-8.1,7.4-10.8,12.1
		C168.5,161.3,168.2,161.4,168,161.4L168,161.4z"></path><path class="st3" d="M337.9,145.9h-57.6c-0.4,0-0.7-0.3-0.7-0.7c0-0.4,0.3-0.7,0.7-0.7h57.5c0.4,0,0.7,0.3,0.7,0.7
		C338.6,145.6,338.3,145.9,337.9,145.9L337.9,145.9z"></path><path class="st3" d="M337.9,153.7h-23.5c-0.4,0-0.7-0.3-0.7-0.7c0-0.4,0.3-0.7,0.7-0.7h23.5c0.4,0,0.7,0.3,0.7,0.7
		C338.6,153.4,338.3,153.7,337.9,153.7z"></path><path class="st3" d="M304.6,153.7h-24.2c-0.4,0-0.7-0.3-0.7-0.7c0-0.4,0.3-0.7,0.7-0.7h24.2c0.4,0,0.7,0.3,0.7,0.7
		C305.3,153.4,305,153.7,304.6,153.7L304.6,153.7z"></path><path class="st3" d="M337.9,161.5h-50.3c-0.4,0-0.7-0.3-0.7-0.7c0-0.4,0.3-0.7,0.7-0.7h50.3c0.4,0,0.7,0.3,0.7,0.7
		C338.6,161.1,338.3,161.5,337.9,161.5z"></path></g><g id="Character_with_Magnifying_Glass"><path class="st1" d="M89.2,383.7V394c0,0,23.7,2.8,23.2,1.7s-13.6-10.4-13.6-10.4L89.2,383.7L89.2,383.7z"></path><path class="st1" d="M110.5,396.6c-2.7,0-8.5-0.4-21.4-1.9c-0.4,0-0.6-0.3-0.6-0.7v-10.3c0-0.2,0.1-0.4,0.2-0.5
		c0.2-0.1,0.4-0.2,0.6-0.2l9.6,1.6c0.1,0,0.2,0.1,0.3,0.1c4,2.8,13.3,9.6,13.9,10.6c0.1,0.3,0.1,0.6-0.1,0.8
		C112.8,396.4,112.6,396.6,110.5,396.6z M89.9,393.4c8.6,1,17.8,1.9,21,1.9c-2-1.7-7.5-5.7-12.5-9.3l-8.6-1.4L89.9,393.4z"></path><polygon class="st0" points="89.2,374.7 89.2,383.7 98.7,385.3 100.3,374.7 	"></polygon><path class="st1" d="M98.7,386h-0.1l-9.6-1.6c-0.3-0.1-0.6-0.3-0.6-0.7v-9.1c0-0.4,0.3-0.7,0.7-0.7h0h11.1c0.4,0,0.7,0.3,0.7,0.7
		c0,0,0,0.1,0,0.1l-1.6,10.7c0,0.2-0.1,0.4-0.3,0.5C99,386,98.9,386,98.7,386L98.7,386z M89.9,383.1l8.3,1.4l1.4-9.2h-9.6
		L89.9,383.1z"></path><polygon class="st0" points="122.1,377.4 122.1,387.1 132.9,387.9 133.6,377.4 	"></polygon><path class="st1" d="M133,388.6L133,388.6l-10.8-0.8c-0.4,0-0.7-0.3-0.7-0.7v-9.7c0-0.4,0.3-0.7,0.7-0.7h0h11.5
		c0.2,0,0.4,0.1,0.5,0.2c0.1,0.1,0.2,0.3,0.2,0.5l-0.6,10.5c0,0.2-0.1,0.4-0.2,0.5C133.4,388.5,133.2,388.6,133,388.6L133,388.6z
		 M122.9,386.4l9.5,0.7l0.6-9.1h-10L122.9,386.4z"></path><polygon class="st1" points="138.1,279 134.6,379.4 120.5,379.4 113.2,304.6 101.4,378.1 87.9,377.4 95.3,279.8 	"></polygon><path class="st1" d="M134.6,380.1h-14.1c-0.4,0-0.7-0.3-0.7-0.6l-6.8-69.3l-10.9,68.1c-0.1,0.4-0.4,0.6-0.7,0.6l-13.5-0.7
		c-0.2,0-0.4-0.1-0.5-0.2c-0.1-0.1-0.2-0.3-0.2-0.5l7.4-97.5c0-0.4,0.3-0.6,0.7-0.6l42.8-0.8c0.2,0,0.4,0.1,0.5,0.2
		c0.1,0.1,0.2,0.3,0.2,0.5l-3.5,100.4C135.3,379.8,135,380.1,134.6,380.1L134.6,380.1z M121.2,378.7H134l3.4-99L96,280.5l-7.3,96.2
		l12.2,0.7l11.6-72.8c0-0.4,0.4-0.7,0.8-0.6c0.3,0,0.6,0.3,0.6,0.6L121.2,378.7L121.2,378.7z"></path><path class="st0" d="M167.4,250.6c2.7-1.1,5.6-1.7,8.5-1.9c4.8-0.2,6.8-3.2,6.6-5.4s-4.7-3.9-7.8-3.4s-10.2,5.3-10.2,5.3
		L167.4,250.6z"></path><path class="st1" d="M167.4,251.3c-0.3,0-0.5-0.1-0.6-0.4l-2.9-5.3c-0.2-0.3-0.1-0.7,0.2-0.9c0.3-0.2,7.3-4.9,10.5-5.4
		c2.5-0.3,5.1,0.3,7.1,1.7c0.8,0.5,1.3,1.3,1.4,2.2c0.1,1.3-0.4,2.6-1.3,3.6c-1.5,1.6-3.7,2.6-5.9,2.5c-2.8,0.2-5.6,0.8-8.3,1.8
		C167.6,251.3,167.5,251.3,167.4,251.3L167.4,251.3z M165.4,245.6l2.3,4.2c2.6-1,5.4-1.6,8.2-1.7c1.9,0.1,3.6-0.7,4.9-2
		c0.6-0.7,1-1.6,0.9-2.6c-0.1-0.5-0.4-1-0.9-1.3c-1.8-1.2-3.9-1.7-6-1.5C172.4,241.2,167.1,244.5,165.4,245.6L165.4,245.6z"></path><path class="st2" d="M136,217.9c0,0,11,27.4,13.2,27.9s18.7-4.1,18.7-4.1l0.4,10.2c0,0-17.7,10.9-24.5,7.1s-26.4-23.5-26.4-23.5
		L136,217.9z"></path><polygon class="st1" points="177.9,243.1 186.8,248.9 198.4,230.7 189.5,225 	"></polygon><path class="st1" d="M186.8,249.6c-0.1,0-0.3,0-0.4-0.1l-8.8-5.8c-0.3-0.2-0.4-0.6-0.2-1c0,0,0,0,0,0l11.6-18.1
		c0.1-0.2,0.3-0.3,0.4-0.3c0.2,0,0.4,0,0.5,0.1l8.8,5.8c0.3,0.2,0.4,0.6,0.2,1c0,0,0,0,0,0l-11.6,18.1c-0.1,0.2-0.3,0.3-0.4,0.3
		L186.8,249.6L186.8,249.6z M178.9,242.9l7.7,5l10.8-17l-7.7-5L178.9,242.9z"></path><polyline class="st1" points="187.2,230.1 229,164.6 235.8,169.1 	"></polyline><path class="st1" d="M187.1,230.8c-0.1,0-0.3,0-0.4-0.1c-0.3-0.2-0.4-0.6-0.2-1c0,0,0,0,0,0l41.8-65.4c0.1-0.2,0.3-0.3,0.4-0.3
		c0.2,0,0.4,0,0.5,0.1l6.8,4.4c0.3,0.2,0.4,0.6,0.2,1c-0.2,0.3-0.6,0.4-1,0.2l0,0l-6.2-4l-41.4,64.9
		C187.6,230.7,187.4,230.8,187.1,230.8L187.1,230.8z"></path><ellipse class="st1" transform="matrix(0.5252 -0.851 0.851 0.5252 -69.7029 278.6408)" cx="214.8" cy="201.8" rx="38.8" ry="31.3"></ellipse><path class="st1" d="M208.5,239.4c-5.3,0-10.5-1.4-14.9-4.3c-14.8-9.6-17.3-32.4-5.6-50.8l0,0c6.4-10.1,16.1-17.2,26.5-19.4
		c7.4-1.8,15.2-0.5,21.6,3.6c14.8,9.6,17.3,32.4,5.6,50.8c-6.4,10.1-16.1,17.2-26.5,19.4C213,239.2,210.8,239.4,208.5,239.4z
		 M189.1,185.1c-11.3,17.7-9,39.6,5.2,48.9c5.9,3.9,13,5,20.6,3.4c10-2.2,19.4-9,25.6-18.8c11.3-17.7,9-39.6-5.2-48.9
		c-5.9-3.9-13-5-20.6-3.4C204.8,168.4,195.4,175.2,189.1,185.1z"></path><ellipse class="st0" transform="matrix(0.5291 -0.8486 0.8486 0.5291 -70.1143 270.735)" cx="208.9" cy="198.5" rx="38.9" ry="31.4"></ellipse><path class="st1" d="M201.7,235c-5.3,0-10.5-1.4-14.9-4.3c-14.8-9.6-17.3-32.4-5.6-50.8c6.4-10.1,16.1-17.2,26.5-19.4
		c7.4-1.8,15.2-0.5,21.6,3.6c14.8,9.6,17.3,32.4,5.6,50.8c-6.4,10.1-16.1,17.2-26.5,19.4C206.2,234.8,204,235,201.7,235z
		 M214.5,161.1c-2.2,0-4.4,0.2-6.5,0.7c-10,2.2-19.4,9-25.6,18.8c-11.3,17.7-9,39.6,5.2,48.9c5.9,3.9,13,5,20.6,3.4
		c10-2.2,19.4-9,25.6-18.8c11.3-17.7,9-39.6-5.2-48.9C224.4,162.5,219.5,161.1,214.5,161.1L214.5,161.1z"></path><ellipse class="st0" transform="matrix(0.5252 -0.851 0.851 0.5252 -69.1746 270.7855)" cx="208.1" cy="197.4" rx="30.7" ry="24.8"></ellipse><path class="st1" d="M203,227.3c-4.2,0-8.4-1.2-11.9-3.4c-11.8-7.7-13.8-25.8-4.5-40.4c5.1-8,12.8-13.6,21.1-15.4
		c5.9-1.4,12.2-0.4,17.3,2.8c11.8,7.7,13.8,25.8,4.5,40.4c-5.1,8-12.8,13.6-21.1,15.4C206.6,227.1,204.9,227.3,203,227.3L203,227.3z
		 M213.1,168.8c-1.7,0-3.4,0.2-5.1,0.6c-7.9,1.7-15.3,7.1-20.2,14.8c-8.9,14-7.1,31.2,4,38.5c4.8,3,10.6,4,16.2,2.7
		c7.9-1.7,15.3-7.1,20.2-14.8c8.9-14,7.1-31.2-4-38.5C220.9,169.9,217.1,168.8,213.1,168.8L213.1,168.8z"></path><path class="st1" d="M187.3,183.9c-9.1,14.3-7.2,32,4.2,39.4c0.7,0.5,1.5,0.9,2.3,1.3c-9.6-8.2-10.7-24.5-2.1-37.8
		s23.7-19.1,35-13.7c-0.7-0.6-1.4-1.1-2.1-1.6C213.1,164,196.4,169.6,187.3,183.9L187.3,183.9z"></path><path class="st1" d="M193.8,225.3c-0.1,0-0.2,0-0.3-0.1c-0.8-0.4-1.6-0.8-2.4-1.3c-11.8-7.7-13.8-25.8-4.4-40.4
		c5.1-8,12.8-13.6,21.1-15.4c5.9-1.4,12.1-0.4,17.2,2.9c0.8,0.5,1.5,1.1,2.2,1.6c0.3,0.2,0.3,0.6,0.1,0.9c-0.2,0.3-0.6,0.4-0.9,0.2
		c-11.2-5.3-25.8,0.4-34.1,13.4s-7.4,28.9,2,36.9c0.3,0.3,0.3,0.7,0.1,1C194.2,225.2,194.1,225.3,193.8,225.3L193.8,225.3z
		 M213.2,168.8c-1.7,0-3.4,0.2-5.1,0.6c-7.9,1.7-15.2,7.1-20.2,14.8c-8.3,13-7.3,28.8,1.8,36.8c-6.3-9.1-6-23,1.5-34.6
		s19.9-17.7,30.7-15.6C219.1,169.5,216.2,168.8,213.2,168.8L213.2,168.8z"></path><path class="st0" d="M145,299.4l4.6,3c2.3,1.5,5.3,0.8,6.7-1.4c0,0,0,0,0,0l31.6-49.4c1.4-2.3,0.8-5.3-1.4-6.8l-4.6-3
		c-2.3-1.5-5.3-0.8-6.7,1.4c0,0,0,0,0,0l-31.6,49.4C142.1,294.9,142.7,297.9,145,299.4z"></path><path class="st1" d="M152.2,303.9c-1.1,0-2.1-0.3-3-0.9l-4.6-3l0,0c-2.6-1.7-3.3-5.2-1.7-7.8l31.6-49.4c1.6-2.6,5.1-3.4,7.7-1.7
		c0,0,0,0,0,0l4.6,3c2.6,1.7,3.3,5.2,1.7,7.8l-31.6,49.4c-0.8,1.3-2.1,2.1-3.5,2.5C153,303.8,152.6,303.9,152.2,303.9L152.2,303.9z
		 M145.4,298.8l4.6,3c0.9,0.6,2.1,0.8,3.1,0.6c1.1-0.2,2.1-0.9,2.6-1.9l31.6-49.4c1.3-2,0.7-4.6-1.2-5.9l-4.6-3
		c-1.9-1.3-4.5-0.7-5.7,1.2c0,0,0,0,0,0.1L144.1,293C142.8,295,143.4,297.6,145.4,298.8L145.4,298.8z"></path><path class="st3" d="M194.6,197.1c-0.3,0-0.5-0.2-0.6-0.4c-0.2-0.4,0-0.8,0.3-0.9c0,0,0,0,0,0l20.7-9.7c0.4-0.2,0.8,0,0.9,0.3
		c0.2,0.4,0,0.8-0.3,0.9l0,0l-20.7,9.6C194.8,197,194.7,197.1,194.6,197.1L194.6,197.1z"></path><path class="st3" d="M211.4,199.1c-0.3,0-0.5-0.2-0.6-0.4c-0.2-0.3,0-0.8,0.3-0.9c0,0,0,0,0,0l17.9-8.6c0.3-0.2,0.8-0.1,1,0.3
		c0.2,0.3,0.1,0.8-0.3,1c0,0-0.1,0-0.1,0l-17.8,8.6C211.7,199.1,211.6,199.2,211.4,199.1L211.4,199.1z"></path><path class="st3" d="M193,217.5c-0.3,0-0.5-0.1-0.6-0.4c-0.2-0.3,0-0.8,0.3-0.9c0,0,0,0,0,0l33-16.3c0.3-0.2,0.8,0,0.9,0.3
		c0.2,0.3,0,0.8-0.3,0.9l0,0l-33,16.3C193.2,217.5,193.1,217.5,193,217.5z"></path><path class="st0" d="M125.3,207.6c-1.1-0.1-2.3-0.4-3.6-0.6s-2.8-0.8-2.8-2c0-1.1,1.4-1.9,1.1-2.9c-0.1-0.3-0.2-0.6-0.4-0.8
		c-1.6-2.5-2.2-5.5-1.7-8.5c0.5-2.9,2.2-5.5,4.6-7.3c-0.3,0.1-0.7-0.3-0.7-0.6c0-0.4,0.2-0.7,0.4-1c1-1,2.2-1.6,3.6-1.9
		c4.3-1,8.7-0.8,12.9,0.8c3.2,1.1,6.9,4,6.2,7.9c-0.2,1.4-1.4,2.6-2.8,2.7c-0.9,4.1-3.3,6.9-6.2,9.7c-1.9,2-4.4,3.4-7,4.2
		C127.8,207.6,126.6,207.7,125.3,207.6L125.3,207.6z"></path><path class="st1" d="M126.5,208.3c-0.4,0-0.8,0-1.2-0.1l0,0c-0.7-0.1-1.4-0.2-2.1-0.3c-0.5-0.1-1-0.2-1.6-0.3
		c-2.2-0.3-3.4-1.3-3.3-2.7c0.1-0.6,0.3-1.2,0.7-1.7c0.3-0.5,0.5-0.8,0.4-1c-0.1-0.2-0.1-0.3-0.3-0.5c-1.7-2.7-2.4-5.9-1.8-9
		c0.5-2.8,1.9-5.3,4.1-7.1c-0.1-0.2-0.2-0.4-0.2-0.7c0-0.6,0.2-1.1,0.6-1.5c1.1-1.1,2.4-1.8,3.9-2.1c4.4-1.1,9-0.8,13.3,0.8
		c3.8,1.4,7.3,4.6,6.7,8.6c-0.2,1.6-1.4,2.8-2.9,3.2c-1.1,4.2-3.7,7-6.3,9.6c-2,2-4.5,3.5-7.3,4.4
		C128.3,208.3,127.4,208.4,126.5,208.3L126.5,208.3z M125.4,206.9c1.1,0.1,2.3,0,3.4-0.3c2.5-0.8,4.8-2.1,6.7-4
		c3.1-3.1,5.1-5.6,6-9.4c0.1-0.3,0.4-0.5,0.7-0.5c1.1-0.1,2-1,2.1-2.1c0.6-3.7-3.3-6.2-5.8-7.1c-4-1.5-8.3-1.8-12.4-0.8
		c-1.2,0.2-2.3,0.8-3.2,1.7c-0.1,0.1-0.2,0.3-0.3,0.5c0.3,0,0.5,0.1,0.7,0.4c0.1,0.3,0.1,0.7-0.2,0.9c-2.3,1.6-3.8,4.1-4.3,6.8
		c-0.5,2.8,0.1,5.6,1.6,8c0.2,0.3,0.4,0.6,0.5,1c0.1,0.8-0.1,1.5-0.7,2.1c-0.2,0.3-0.4,0.6-0.5,1c0,0.7,1.1,1.1,2.2,1.3
		c0.6,0.1,1.1,0.2,1.6,0.3C124.1,206.8,124.8,206.9,125.4,206.9L125.4,206.9L125.4,206.9z"></path><path class="st0" d="M142.9,199.5c0,0,2.7,5.1,1.9,6s-2.8,0-2.8,0"></path><path class="st1" d="M143.8,206.7c-0.7,0-1.4-0.2-2-0.4c-0.4-0.1-0.5-0.5-0.4-0.9c0,0,0,0,0,0c0.1-0.4,0.6-0.5,0.9-0.4
		c0.7,0.3,1.8,0.5,2,0.2s-0.8-3-2-5.3c-0.1-0.4,0-0.8,0.4-0.9c0.3-0.1,0.7,0,0.8,0.3c1.3,2.5,2.7,5.7,1.9,6.8
		C145,206.5,144.4,206.7,143.8,206.7L143.8,206.7z"></path><path class="st0" d="M142.9,193.1c1.8,1.9,0.9,5.3,0.7,7.5c-0.3,3.2-0.7,6.3-1.2,9.5c-0.3,2-5.5,1.5-6.3,0.8l0.1,8.1l-10.5-5.3
		l1.1-6.5c0,0,3.5,0.4,5.9-3.5s3-12.9,3-12.9S141.1,191.3,142.9,193.1L142.9,193.1z"></path><path class="st1" d="M136.1,219.7c-0.1,0-0.2,0-0.3-0.1l-10.5-5.3c-0.3-0.1-0.4-0.4-0.4-0.7l1.1-6.6c0.1-0.4,0.4-0.6,0.8-0.6
		c0.1,0,3.1,0.3,5.3-3.2c2.3-3.7,2.9-12.4,2.9-12.5c0-0.2,0.1-0.4,0.2-0.5c0.1-0.1,0.3-0.2,0.5-0.2c0.6,0.1,5.8,0.6,7.7,2.5l0,0
		c1.8,1.8,1.4,4.6,1.1,6.9c-0.1,0.4-0.1,0.8-0.2,1.2c-0.3,3.2-0.7,6.4-1.2,9.5c-0.1,0.8-0.7,1.4-1.5,1.6c-1.6,0.5-3.2,0.5-4.8,0.1v7
		c0,0.2-0.1,0.5-0.3,0.6C136.3,219.6,136.2,219.7,136.1,219.7L136.1,219.7z M126.4,213.3l9,4.6V211c0-0.3,0.2-0.5,0.4-0.6
		c0.2-0.1,0.5-0.1,0.7,0.1c1.5,0.5,3.1,0.6,4.6,0.2c0.4-0.1,0.6-0.3,0.6-0.5c0.5-3.1,0.9-6.3,1.2-9.5c0-0.4,0.1-0.8,0.2-1.3
		c0.3-2,0.6-4.4-0.7-5.7l0,0c-1.1-1.1-4.4-1.8-6.1-2c-0.2,2.3-0.9,9.1-3,12.4c-1.2,2.2-3.4,3.6-5.9,3.9L126.4,213.3L126.4,213.3z"></path><path class="st0" d="M142.5,207.8c-1.2,0.7-2.8,0.2-3.5-1c-0.1-0.1-0.1-0.2-0.2-0.4"></path><path class="st1" d="M141.2,208.8c-0.4,0-0.8-0.1-1.1-0.2c-0.9-0.4-1.5-1.1-1.8-1.9c-0.1-0.4,0-0.8,0.4-0.9s0.8,0,0.9,0.4
		c0.2,0.5,0.5,0.9,1,1.2c0.6,0.2,1.2,0.1,1.7-0.1c0.4-0.2,0.8,0,0.9,0.3c0.2,0.3,0,0.8-0.3,0.9C142.3,208.6,141.7,208.8,141.2,208.8
		L141.2,208.8z"></path><path class="st0" d="M136.7,200.9c0-0.8-0.2-1.6-0.7-2.3c-0.3-0.6-0.6-1.1-1-1.6c-0.4-0.5-1-0.7-1.6-0.7c-0.5,0.1-1,0.4-1.3,0.9
		c-0.3,0.5-0.5,1-0.5,1.5c-0.3,2.4,0.6,4.8,2.6,6.4l-0.2-0.2"></path><path class="st1" d="M134,205.9c-0.2,0-0.3-0.1-0.4-0.1c-2.1-1.7-3.2-4.3-2.8-7c0.1-0.7,0.3-1.3,0.7-1.8c0.4-0.6,1.1-1.1,1.8-1.2
		c0.8-0.1,1.7,0.3,2.2,0.9c0.5,0.5,0.8,1.1,1.1,1.7c0.5,0.8,0.7,1.7,0.8,2.6c0,0.4-0.3,0.7-0.7,0.7c-0.4,0-0.7-0.3-0.7-0.7
		c0,0,0-0.1,0-0.1c0-0.7-0.2-1.3-0.6-1.9c-0.2-0.5-0.5-1-0.9-1.4c-0.3-0.3-0.7-0.5-1.1-0.5c-0.3,0.1-0.6,0.3-0.8,0.6
		c-0.2,0.4-0.4,0.8-0.4,1.2c-0.3,2,0.4,4,1.9,5.4c0.1,0,0.3,0.1,0.4,0.2l0.2,0.2c0.2,0.3,0.2,0.7-0.1,0.9
		C134.4,205.8,134.2,205.9,134,205.9L134,205.9z"></path><ellipse class="st1" transform="matrix(3.995742e-02 -0.9992 0.9992 3.995742e-02 -60.2235 331.2473)" cx="142.3" cy="197" rx="1.1" ry="0.4"></ellipse><path class="st1" d="M123.2,215.4l1.3-3.4l13.8,2.2l1,5.4C133.6,219.9,128,218.5,123.2,215.4L123.2,215.4z"></path><path class="st1" d="M137.8,220.4c-5.3-0.1-10.4-1.6-14.9-4.4c-0.3-0.2-0.4-0.5-0.3-0.8l1.3-3.4c0.1-0.3,0.4-0.5,0.8-0.4l13.8,2.2
		c0.3,0,0.5,0.3,0.6,0.6l1,5.4c0,0.2,0,0.4-0.1,0.6c-0.1,0.2-0.3,0.3-0.5,0.3C138.9,220.3,138.3,220.3,137.8,220.4L137.8,220.4z
		 M124.1,215.1c4.4,2.6,9.3,3.9,14.4,3.9l-0.8-4.1l-12.7-2.1L124.1,215.1z"></path><path class="st0" d="M167.1,259.8c2,1,4.1,1.9,6.3,2.7c1,0.1,2.8-2.2,3.9-1.6s4.8,5,4.8,5.7s-1.7,5.9-3.2,5.7
		c-1.6-0.5-3.1-1.1-4.6-1.9l-9.6-1.4"></path><path class="st1" d="M179,273c-0.1,0-0.2,0-0.2,0c-1.6-0.5-3.2-1.1-4.6-1.9l-9.5-1.4c-0.4,0-0.7-0.4-0.7-0.7s0.4-0.7,0.7-0.7
		c0,0,0.1,0,0.1,0l9.6,1.4c0.1,0,0.2,0,0.2,0.1c1.4,0.8,2.8,1.4,4.4,1.9c0.7-0.1,2.3-4,2.4-5c-1.3-1.9-2.8-3.6-4.5-5.1
		c-0.2-0.1-1.1,0.5-1.5,0.8c-0.6,0.5-1.3,0.9-2.1,0.9c-2.2-0.8-4.4-1.7-6.5-2.7c-0.4-0.1-0.5-0.5-0.4-0.9s0.5-0.5,0.9-0.4
		c0,0,0.1,0,0.1,0c2,1,4,1.9,6.1,2.6c0.4-0.2,0.8-0.4,1.1-0.6c0.9-0.6,2.1-1.5,3.1-0.8s5.1,5.1,5.1,6.3c0,0.7-1.2,4.7-2.7,5.9
		C179.8,272.9,179.4,273,179,273z"></path><path class="st2" d="M143.6,221.7c0,0,3.8,28.6,5.8,28.6s21.7,9.5,21.7,9.5l-3.3,12.5c0,0-25.1-3.6-30.6-6.3
		c-2.9-1.4-7.9-32.2-7.9-32.2L143.6,221.7L143.6,221.7z"></path><path class="st2" d="M142.8,220.2c-7.6-4.1-17.9-11-31.1-0.8s-19.3,67.3-19.3,67.3l49.2-3.8C141.7,282.9,149.9,224,142.8,220.2
		L142.8,220.2z"></path><path class="st1" d="M134.4,264.9c-0.3,0-0.6-0.2-0.7-0.6c0-0.2-3.4-18-5.5-30.6c0-0.4,0.2-0.7,0.6-0.8c0.4,0,0.7,0.2,0.8,0.5
		c2,12.6,5.4,30.4,5.4,30.6c0.1,0.4-0.2,0.7-0.6,0.8c0,0,0,0,0,0L134.4,264.9L134.4,264.9z"></path><path class="st1" d="M165.4,258.2c-0.1,0-0.2,0-0.2,0l-18.6-6.4c-0.3-0.1-0.5-0.3-0.5-0.6c0-0.2-1.6-23.3-3.4-28.6
		c-0.1-0.4,0.1-0.8,0.4-0.9s0.8,0.1,0.9,0.4c1.7,5.1,3.2,25.1,3.5,28.5l18.2,6.3c0.4,0.1,0.6,0.5,0.4,0.9
		C166,258.1,165.7,258.2,165.4,258.2L165.4,258.2z"></path><path class="st0" d="M171.5,241.6c0,0,4.8-4,6.4-3.9s7.5,0.8,5.8,2.1s-5.9,0.7-5.9,0.7s0.5,0.5-1.5,1.9"></path><path class="st1" d="M176.3,243.1c-0.4,0-0.7-0.3-0.7-0.7c0-0.2,0.1-0.4,0.3-0.6c0.5-0.3,0.9-0.7,1.2-1.2c-0.1-0.2-0.1-0.4,0-0.5
		c0.1-0.3,0.4-0.4,0.7-0.4c1.1,0.1,3.9,0.3,5.2-0.4c-1.7-0.5-3.4-0.9-5.2-0.9c-0.8-0.1-3.7,1.9-5.9,3.8c-0.3,0.2-0.7,0.2-1-0.1
		c-0.2-0.3-0.2-0.7,0.1-1l0,0c1.2-1,5.1-4.1,6.8-4.1h0.2c0.2,0,6.2,0.3,6.7,2c0.1,0.5-0.1,1-0.5,1.3c-1.5,1.1-4.4,1-5.8,0.9
		c-0.4,0.7-1,1.3-1.7,1.7C176.6,243,176.4,243,176.3,243.1L176.3,243.1z M177.3,240.9L177.3,240.9z"></path><path class="st1" d="M122.1,387.1v8.9c0,0,22.6,1.1,22.3-0.6s-11.4-7.5-11.4-7.5L122.1,387.1z"></path><path class="st1" d="M134.9,397c-4.6,0-9.7-0.2-12.8-0.4c-0.4,0-0.7-0.3-0.7-0.7v-8.9c0-0.2,0.1-0.4,0.2-0.5
		c0.1-0.1,0.3-0.2,0.5-0.2l10.8,0.8c0.1,0,0.2,0,0.3,0.1c3.4,1.8,11.5,6.1,11.8,8c0,0.3,0,0.6-0.2,0.8
		C144.2,396.8,139.8,397.1,134.9,397L134.9,397z M122.8,395.3c9,0.4,18.6,0.5,20.7-0.1c-1.1-1.2-6.2-4.2-10.8-6.6l-9.9-0.7V395.3
		L122.8,395.3z"></path></g></svg>